<svg xmlns="http://www.w3.org/2000/svg" width="30" height="35"><path d="M19.07 1.1a1.469 1.469 0 011.29.1l4.94 3a2.624 2.624 0 01.69.5 3.832 3.832 0 01.49.8 1.294 1.294 0 00.06.2 1.969 1.969 0 01.12.4 15.73 15.73 0 01.29 1.9 14.58 14.58 0 01-.12 3.4 25.781 25.781 0 01-1.16 4.8 29.977 29.977 0 01-2.81 6.1 35.669 35.669 0 01-2.98 4.6 29.6 29.6 0 01-2.85 3.2 21.45 21.45 0 01-2.52 2 11.536 11.536 0 01-2.07 1.2 3.607 3.607 0 01-1.42.5c-.36.1-.56.2-.6.2a2.921 2.921 0 01-.91-.1 1.228 1.228 0 01-.83-.3l-4.97-2.9a1.328 1.328 0 01-.66-.9 1 1 0 01.04-.7 1.733 1.733 0 01.41-.7l5.14-4.9a1.64 1.64 0 01.99-.4 2.045 2.045 0 011.08.3l1.83 1a.2.2 0 00.22.1h.23a4.507 4.507 0 001.27-1 12.545 12.545 0 001.43-1.5 27.867 27.867 0 001.79-2.8 26.572 26.572 0 001.47-3 21.644 21.644 0 00.65-2.1 4.532 4.532 0 00.14-1.2l-.02-.4a.825.825 0 01-.1-.2.146.146 0 00-.15-.1l-2.16-1.3a1.872 1.872 0 01-.81-1.1 1.743 1.743 0 01-.03-.9h-.01l1.84-6.8a1.518 1.518 0 01.77-1z" fill="#cfcfcf" fill-rule="evenodd"/></svg>