<svg width="18" height="18" fill="none" xmlns="http://www.w3.org/2000/svg"><g clip-path="url(#clip0)" stroke="#A4C223"><path d="M8 11.137L.813 6.634C.591 6.439.5 6.209.5 6c0-.209.091-.439.314-.634L8 .863a2.087 2.087 0 012.002 0l7.185 4.503c.223.195.314.425.314.634 0 .209-.091.439-.314.634L10 11.137c-.645.34-1.357.34-2.002 0z"/><path d="M.45 8.571L9 13.714l8.55-5.143" stroke-linecap="round" stroke-linejoin="round"/><path d="M.45 10.286L9 15.429l8.55-5.143" stroke-linecap="round" stroke-linejoin="round"/><path d="M.45 12L9 17.143 17.55 12" stroke-linecap="round" stroke-linejoin="round"/></g><defs><clipPath id="clip0"><path fill="#fff" transform="rotate(-90 9 9)" d="M0 0h18v18H0z"/></clipPath></defs></svg>