<svg width="22" height="15" fill="none" xmlns="http://www.w3.org/2000/svg"><path d="M21.333 7.727h-.022V6.56c0-.492-.289-.91-.689-1.06V.468c0-.197-.144-.357-.322-.357H1.7c-.178 0-.322.16-.322.357V5.5c-.4.149-.69.567-.69 1.06v1.166h-.02c-.368 0-.667.33-.667.737v3.047c0 .406.299.737.667.737H.69v2.69c0 .197.144.357.322.357H1.7c.148 0 .277-.111.313-.27l.627-2.777h16.72l.627 2.777c.036.159.165.27.313.27h.689c.178 0 .322-.16.322-.357v-2.69h.022c.368 0 .667-.33.667-.737V8.464c0-.406-.299-.737-.667-.737zM1.448 14.582h-.115v-2.334h.643l-.528 2.334zm19.219 0h-.115l-.528-2.334h.643v2.334zm.666-3.046H.667c-.013 0-.022-.011-.022-.025V8.464c0-.013.01-.024.022-.024h18.255c.178 0 .322-.16.322-.357 0-.196-.144-.356-.322-.356H1.333V6.56c0-.223.165-.405.367-.405h.689c.178 0 .322-.16.322-.357 0-.196-.144-.356-.322-.356h-.367V.823h17.956v4.62H18.21v-1.93c0-.616-.453-1.118-1.011-1.118h-4.822c-.558 0-1.011.502-1.011 1.118v1.93h-.734v-1.93c0-.616-.453-1.118-1.01-1.118H4.8c-.558 0-1.011.502-1.011 1.118v1.93h-.022c-.178 0-.323.159-.323.355 0 .197.145.357.323.357H20.3c.202 0 .367.182.367.405v1.167H20.3c-.178 0-.322.16-.322.356 0 .197.144.357.322.357h1.033c.013 0 .022.01.022.024v3.047c0 .014-.01.025-.022.025zm-3.766-8.023v1.93H12.01v-1.93c0-.223.165-.405.367-.405H17.2c.202 0 .367.182.367.405zm-7.578 0v1.93H4.433v-1.93c0-.223.165-.405.367-.405h4.822c.202 0 .367.182.367.405z" fill="#A4C223"/></svg>