<svg width="18" height="18" fill="none" xmlns="http://www.w3.org/2000/svg"><g clip-path="url(#clip0)" fill="#A4C223"><path d="M18 8.55v7.2c0 1.241-1.01 2.25-2.25 2.25H2.25A2.253 2.253 0 010 15.75V2.25C0 1.009 1.01 0 2.25 0h7.2a.45.45 0 010 .9h-7.2C1.506.9.9 1.506.9 2.25v13.5c0 .744.606 1.35 1.35 1.35h13.5c.744 0 1.35-.606 1.35-1.35v-7.2a.45.45 0 01.9 0zm0-8.1v6.3a.45.45 0 01-.9 0V.9h-5.85a.45.45 0 010-.9h6.3a.45.45 0 01.45.45z"/><path d="M18 .45c0 .115-.045.23-.132.318l-8.1 8.1a.45.45 0 01-.636-.636l8.1-8.1a.45.45 0 01.767.318z"/></g><defs><clipPath id="clip0"><path fill="#fff" transform="rotate(-90 9 9)" d="M0 0h18v18H0z"/></clipPath></defs></svg>